<?xml version="1.0" encoding="UTF-8"?>
<svg width="180" height="48" viewBox="0 0 180 48" fill="none" xmlns="http://www.w3.org/2000/svg">
  <!-- Modern house icon -->
  <path d="M24 12L12 22V36H20V28H28V36H36V22L24 12Z" fill="#1A1F36"/>
  <!-- Modern kitchen icon -->
  <path d="M24 24C24 25.1046 23.1046 26 22 26C20.8954 26 20 25.1046 20 24C20 22.8954 20.8954 22 22 22C23.1046 22 24 22.8954 24 24Z" fill="#3E4C8A"/>
  <path d="M22 28V32" stroke="#3E4C8A" stroke-width="1.5" stroke-linecap="round"/>
  <!-- Modern text -->
  <path d="M44 32H48V20H44V32ZM50 32H54V20H50V32ZM56 32H60V20H56V32ZM62 32H66V20H62V32ZM68 32H72V20H68V32Z" fill="#1A1F36"/>
  <path d="M44 44H48V38H44V44ZM50 44H54V38H50V44ZM56 44H60V38H56V44ZM62 44H64V38H62V44ZM66 44H70V38H66V44ZM72 44H76V38H72V44ZM78 44H82V38H78V44ZM84 44H88V38H84V44ZM90 44H94V38H90V44ZM96 44H100V38H96V44ZM102 44H106V38H102V44ZM108 44H112V38H108V44ZM114 44H118V38H114V44ZM120 44H124V38H120V44ZM126 44H130V38H126V44ZM132 44H136V38H132V44ZM138 44H142V38H138V44ZM144 44H148V38H144V44ZM150 44H154V38H150V44ZM156 44H160V38H156V44ZM162 44H166V38H162V44ZM168 44H172V38H168V44Z" fill="#3E4C8A"/>
</svg> 